<svg width="563.616px" height="563.616px" viewBox="0 -65.81 563.616 563.616" xmlns="http://www.w3.org/2000/svg" xmlns:xlink="http://www.w3.org/1999/xlink">
  <defs>
    <clipPath id="clip-man_working_office">
      <rect width="563.616" height="432"/>
    </clipPath>
  </defs>
  <g id="man_working_office" data-name="man working office" clip-path="url(#clip-man_working_office)">
    <rect width="563.616" height="432" fill="#fff"/>
    <g id="office_lifestyle_6" data-name="office lifestyle 6" transform="translate(-2573.424)">
      <g id="Group_20" data-name="Group 20">
        <rect id="Rectangle_6" data-name="Rectangle 6" width="560.599" height="429.004" transform="translate(2574.932 1.498)" fill="#fff28b"/>
        <path id="Path_229" data-name="Path 229" d="M2574.932,0h560.6a1.5,1.5,0,0,1,1.5,1.5v429a1.5,1.5,0,0,1-1.5,1.5h-560.6a1.5,1.5,0,0,1-1.5-1.5V1.5a1.5,1.5,0,0,1,1.5-1.5Zm559.1,3h-557.6V429h557.6Z" fill="#1a1818" fill-rule="evenodd"/>
        <path id="Path_230" data-name="Path 230" d="M2943.961,142.761l-69.452,18.3-34.553,12.784-38.7,43.193-33.516,46.993-12.439,3.456-4.492,7.256-1.037,4.493-10.021,8.984-6.91,38.7,28.333-2.074,22.461,13.821,6.565-13.13,7.256-1.728,5.184-6.91-.691-7.948,40.081-34.208,17.671,66.394,8.32,14.128-1.8,10.355,172.076,51.15-2.379-13.108,3.35-11.423-4.425-14.514,15.894-15.895,5.874-26.607,4.146-52.177-7.947-76.364-17.623-34.553L2962.274,143.8Z" fill="#57c5e6" fill-rule="evenodd"/>
        <path id="Path_231" data-name="Path 231" d="M2944.113,144.266l-69.143,18.223-34.157,12.637-38.381,42.836L2768.954,264.9a1.486,1.486,0,0,1-.837.578l-11.858,3.294-4.052,6.544-.983,4.256a1.48,1.48,0,0,1-.526.835l-9.567,8.577-6.483,36.309,26.419-1.934a1.488,1.488,0,0,1,.887.217h0l21.076,12.968,5.834-11.67a1.486,1.486,0,0,1,.99-.783l0-.006,6.737-1.6,4.508-6.01-.643-7.387a1.5,1.5,0,0,1,.6-1.334l40-34.138a1.494,1.494,0,0,1,2.415.754h0l17.62,66.2,8.213,13.948a1.486,1.486,0,0,1,.183,1h0l-1.576,9.052,168.475,50.079-1.947-10.722a1.5,1.5,0,0,1,.037-.684h0l3.226-11-4.294-14.087a1.491,1.491,0,0,1,.372-1.487l0,0,15.591-15.593,5.749-26.037,4.131-51.986-7.9-75.929-17.244-33.809-72.148-28.039-17.845-1.01Zm-69.985,15.356,69.43-18.3a1.5,1.5,0,0,1,.484-.053l18.314,1.036h0a1.51,1.51,0,0,1,.456.1l72.816,28.3a1.489,1.489,0,0,1,.887.749l17.623,34.554h0a1.482,1.482,0,0,1,.155.525l7.937,76.267a1.527,1.527,0,0,1,.015.365l-4.146,52.177h0a1.485,1.485,0,0,1-.031.205l-5.846,26.478a1.489,1.489,0,0,1-.426.865l-15.262,15.264,4.138,13.578a1.478,1.478,0,0,1,.03.931l-3.252,11.087,2.3,12.677a1.495,1.495,0,0,1-1.874,1.778l-172.015-51.132a1.494,1.494,0,0,1-1.113-1.7l1.71-9.824-7.993-13.574a1.49,1.49,0,0,1-.205-.454l-17.061-64.1L2803.5,309.589l.625,7.186h-.006a1.481,1.481,0,0,1-.292,1.022l-5.111,6.813a1.483,1.483,0,0,1-.92.658l-6.583,1.567-6.191,12.384a1.591,1.591,0,0,1-.117.235,1.5,1.5,0,0,1-2.058.491L2760.8,326.377l-27.8,2.034a1.494,1.494,0,0,1-1.636-1.744l6.91-38.7h.005a1.483,1.483,0,0,1,.474-.854l9.665-8.665.931-4.034h0a1.5,1.5,0,0,1,.185-.45l4.467-7.215a1.489,1.489,0,0,1,.9-.7l11.929-3.313,33.208-46.562h0a1.546,1.546,0,0,1,.1-.129l38.629-43.113a1.475,1.475,0,0,1,.669-.49l34.553-12.784h0C2874.038,159.649,2874.082,159.635,2874.128,159.622Z" fill="#1a1818" fill-rule="evenodd"/>
        <path id="Path_232" data-name="Path 232" d="M2843.3,274.216a1.494,1.494,0,1,1-2.935.561l-3.713-19.351a1.494,1.494,0,0,1,2.935-.561Z" fill="#1a1818" fill-rule="evenodd"/>
        <path id="Path_233" data-name="Path 233" d="M3103.3,430.5,2787.76,330.319l-4.127,8.353-17.211-10.591-9.582-2.912-24,1.757,1.533-12.59-159.44-48.475V430.5Z" fill="#fff" fill-rule="evenodd"/>
        <path id="Path_234" data-name="Path 234" d="M3093.664,429.005l-305.133-96.878-3.559,7.2a1.493,1.493,0,0,1-2,.678,1.281,1.281,0,0,1-.122-.067v0l-17.066-10.5-9.1-2.766-23.739,1.738a1.5,1.5,0,0,1-1.6-1.386,1.475,1.475,0,0,1,.007-.281h0l1.384-11.354-156.308-47.522V429.005ZM2788.21,328.9l315.41,100.141a1.5,1.5,0,0,1-.317,2.96H2574.932a1.5,1.5,0,0,1-1.5-1.5V265.86h.006a1.474,1.474,0,0,1,.064-.433,1.49,1.49,0,0,1,1.859-.993l159.327,48.44a1.5,1.5,0,0,1,1.165,1.636l-1.315,10.791,22.192-1.624v0a1.458,1.458,0,0,1,.537.061l9.458,2.874a1.505,1.505,0,0,1,.475.189l15.817,9.734,3.4-6.881h0A1.49,1.49,0,0,1,2788.21,328.9Z" fill="#1a1818" fill-rule="evenodd"/>
        <path id="Path_235" data-name="Path 235" d="M2868.735,71.084,2853.7,91.3l.172,23.5,2.592,5.874-.691,18.66,7.083,13.13,10.193,11.576,22.979,18.658-.172,10.193,6.393,10.885,18.486,2.419,20.214-14.513,14.341-16.586,6.91-20.386-.863-4.837-12.267-4.665-6.91-7.948-.174-13.907,9.07-8.811,3.2-11.316-1.381-14.252-5.661-1.819-1.767-5.353-4.149-5.873-14.856,1.554-9.5-20.214Z" fill="#fff" fill-rule="evenodd"/>
        <path id="Path_236" data-name="Path 236" d="M2869.627,72.383,2855.2,91.789l.166,22.675,2.472,5.6a1.487,1.487,0,0,1,.119.757l-.672,18.151,6.809,12.619,10.015,11.374,22.868,18.568a1.491,1.491,0,0,1,.548,1.232l-.165,9.725,5.811,9.894,17.18,2.249,19.588-14.065,14.034-16.231,6.693-19.745-.649-3.631-11.473-4.364a1.5,1.5,0,0,1-.657-.491l-6.849-7.878a1.484,1.484,0,0,1-.363-1.008l-.174-13.857a1.481,1.481,0,0,1,.451-1.086h0l8.781-8.532,3.013-10.668-1.258-12.99-4.728-1.519a1.489,1.489,0,0,1-.961-.954h0l-1.7-5.147L2940.58,77.5l-13.988,1.463a1.5,1.5,0,0,1-1.536-.925l-8.925-18.987-46.5,13.334ZM2852.5,90.41l14.975-20.137a1.484,1.484,0,0,1,.846-.627l48.2-13.822,0,0a1.491,1.491,0,0,1,1.758.8l9.049,19.25,13.743-1.437a1.492,1.492,0,0,1,1.438.619l4.1,5.8a1.49,1.49,0,0,1,.249.463l1.53,4.633,4.934,1.585h0a1.5,1.5,0,0,1,1.029,1.281l1.371,14.165a1.474,1.474,0,0,1-.038.631l-3.195,11.316h0a1.486,1.486,0,0,1-.4.666l-8.612,8.367.159,12.715,6.3,7.248,11.856,4.51a1.5,1.5,0,0,1,1.007,1.159l.864,4.837h0a1.488,1.488,0,0,1-.055.742l-6.911,20.386h0a1.493,1.493,0,0,1-.285.5l-14.341,16.585h0a1.522,1.522,0,0,1-.257.234l-20.193,14.5a1.483,1.483,0,0,1-1.085.285l-18.486-2.419h0a1.487,1.487,0,0,1-1.093-.724l-6.387-10.876a1.471,1.471,0,0,1-.21-.786l.16-9.469-22.338-18.138a1.507,1.507,0,0,1-.26-.234l-10.193-11.575h0a1.558,1.558,0,0,1-.194-.28l-7.084-13.131h0a1.481,1.481,0,0,1-.177-.76l.678-18.312-2.458-5.567h0a1.477,1.477,0,0,1-.126-.595l-.172-23.435A1.5,1.5,0,0,1,2852.5,90.41Z" fill="#1a1818" fill-rule="evenodd"/>
        <path id="Path_237" data-name="Path 237" d="M2950.007,145.354l-3.715-3.628,15.466,1.123,6.995,3.367-4.06,17.106-17.45,30.579-22.46,14.687-22.114-.174-13.3-10.538-4.146-9.848-1.037-8.551,11.922,2.677v5.183l2.591,6.219,6.22,5.183,17.1.346,18.14-13.13,14.513-24.88,2.419-13.475Z" fill="#f197ab" fill-rule="evenodd"/>
        <path id="Path_238" data-name="Path 238" d="M2948.893,146.352l-3.642-3.557a1.492,1.492,0,0,1,1.146-2.558v0l15.466,1.124a1.466,1.466,0,0,1,.606.176l6.933,3.337a1.5,1.5,0,0,1,.8,1.689h0l-4.06,17.106a1.48,1.48,0,0,1-.213.488l-17.4,30.482a1.485,1.485,0,0,1-.481.513l0,0-22.46,14.686a1.491,1.491,0,0,1-.939.239l-22-.173a1.491,1.491,0,0,1-.95-.351l-13.266-10.508a1.472,1.472,0,0,1-.45-.591h0l-4.147-9.848a1.473,1.473,0,0,1-.107-.4h0l-1.037-8.552a1.5,1.5,0,0,1,1.911-1.609l11.823,2.655a1.493,1.493,0,0,1,1.165,1.456h.005v4.892l2.334,5.6,5.531,4.609,16.077.325,17.487-12.657,14.222-24.381,2.139-11.916-5.834-1.85a1.49,1.49,0,0,1-.664-.428Zm1.364-2.84.534.521,6.75,2.14v0a1.491,1.491,0,0,1,1.018,1.685l-2.4,13.394a1.5,1.5,0,0,1-.19.566l-14.481,24.825a1.5,1.5,0,0,1-.447.517L2922.9,200.3l0,0a1.484,1.484,0,0,1-.905.283l-17.1-.346h0a1.485,1.485,0,0,1-.923-.344l-6.143-5.118a1.5,1.5,0,0,1-.505-.638L2894.762,188a1.5,1.5,0,0,1-.155-.664v-3.991l-8.687-1.95.76,6.261,3.911,9.289,12.6,9.981,21.145.166,21.791-14.249,17.156-30.063,3.737-15.741-5.651-2.72Z" fill="#1a1818" fill-rule="evenodd"/>
        <path id="Path_239" data-name="Path 239" d="M2919.18,79.721l-6.738-10.711L2875.3,82.486,2859.23,98.553,2846.1,92.161,2841.78,72.81l9.848-19.867,10.712-5.011,17.1-17.623,21.25-7.43,21.423,2.592,15.9,7.948L2950.625,54.5l3.11,16.152-3.11,17.193-3.974-1.037-8.639,16.758,3.847,20.463.387,13.142-7.69,18.226-10.539,12.958-21.769,14.858-12.958,2.765-12.439-9.157-3.8-12.958-6.565-7.256,3.109-2.246,12.784.949,11.75-7,17.449,2.937,11.4-11.576,7.947-31.1-14.167-12.267Z" fill="#57c5e6" fill-rule="evenodd"/>
        <g id="Group_19" data-name="Group 19">
          <path id="Path_240" data-name="Path 240" d="M2917.623,80.048l-5.8-9.225-35.694,12.949-15.839,15.839a1.5,1.5,0,0,1-1.763.262L2845.443,93.5a1.5,1.5,0,0,1-.826-1.138l-4.293-19.236a1.486,1.486,0,0,1,.119-.981h0l9.848-19.867a1.487,1.487,0,0,1,.78-.723l10.387-4.86,16.917-17.431a1.5,1.5,0,0,1,.617-.382L2900.2,21.47a1.492,1.492,0,0,1,.667-.073v0l21.422,2.592a1.5,1.5,0,0,1,.6.209l15.784,7.891a1.483,1.483,0,0,1,.612.568h0l12.612,21.078a1.5,1.5,0,0,1,.185.485h0l3.11,16.153a1.469,1.469,0,0,1-.018.645l-3.092,17.091a1.49,1.49,0,0,1-1.73,1.2c-.038-.007-.075-.015-.111-.024h0l-2.82-.736-7.857,15.241,3.753,19.96a1.519,1.519,0,0,1,.026.306l.384,13.07a1.479,1.479,0,0,1-.135.664l-7.672,18.181a1.5,1.5,0,0,1-.217.362h0l-10.54,12.957a1.466,1.466,0,0,1-.316.291h0l-21.768,14.859a1.476,1.476,0,0,1-.532.228h0l-12.959,2.763a1.488,1.488,0,0,1-1.233-.287l-12.4-9.127a1.484,1.484,0,0,1-.558-.812l-3.7-12.608-6.332-7a1.491,1.491,0,0,1,.1-2.1c.042-.037.085-.072.129-.1h0l3.109-2.247a1.494,1.494,0,0,1,.976-.277v0l12.33.916,11.339-6.752a1.487,1.487,0,0,1,1.005-.188v0l16.686,2.808,10.569-10.729,7.621-29.821-13.466-11.66a1.494,1.494,0,0,1-.5-1.339h0l2.34-16.049Zm-3.917-11.833,6.7,10.654a1.488,1.488,0,0,1,.252,1.063l-2.3,15.784,13.464,11.659a1.5,1.5,0,0,1,.556,1.567l-7.947,31.1h0a1.481,1.481,0,0,1-.382.679l-11.362,11.533a1.494,1.494,0,0,1-1.352.469l-16.917-2.847-11.164,6.647a1.482,1.482,0,0,1-.977.277l-12.251-.91-1.316.95,5.385,5.952a1.493,1.493,0,0,1,.391.65l3.658,12.474,11.493,8.46,12.017-2.563L2923,167.237l10.267-12.623,7.479-17.725-.373-12.692-3.827-20.351v-.008a1.485,1.485,0,0,1,.14-.959l8.639-16.758h0a1.494,1.494,0,0,1,1.7-.761l2.42.632,2.772-15.326-3.01-15.634-12.252-20.476-15.26-7.629L2900.853,24.4l-20.584,7.2-16.86,17.371h0a1.491,1.491,0,0,1-.438.31l-10.234,4.789L2843.351,73l4.044,18.125,11.531,5.613,15.313-15.313,0,0a1.487,1.487,0,0,1,.547-.348l37.127-13.47.019-.006Z" fill="#1a1818" fill-rule="evenodd"/>
        </g>
        <path id="Path_241" data-name="Path 241" d="M2875.926,163l4.011-1.707,5.831.429,7.217-4.2,8.812-.338-6.052,7.642-7.279,4.105-7.577-1.307Z" fill="#fff" fill-rule="evenodd"/>
        <path id="Path_242" data-name="Path 242" d="M2875.372,161.616l3.981-1.694a1.474,1.474,0,0,1,.689-.116h0l5.377.4,6.817-3.968a1.484,1.484,0,0,1,.756-.2l8.752-.336a1.491,1.491,0,0,1,1.179,2.468l-6.01,7.587a1.469,1.469,0,0,1-.48.4l-7.238,4.082a1.478,1.478,0,0,1-.981.17v.006l-7.576-1.307a1.483,1.483,0,0,1-.812-.423l-4.916-4.581a1.494,1.494,0,0,1,.463-2.479Zm4.814,1.2-1.56.664,2.953,2.753,6.622,1.142,6.556-3.7,3.86-4.873-5.2.2-6.84,3.982a1.481,1.481,0,0,1-.913.234Z" fill="#1a1818" fill-rule="evenodd"/>
        <path id="Path_243" data-name="Path 243" d="M2842.354,188.751l-18.048-21.373,24.75,18.818,5.739,14.175-7.7,3.687Z" fill="#fff" fill-rule="evenodd"/>
        <path id="Path_244" data-name="Path 244" d="M2841.019,189.484l-17.853-21.142a1.493,1.493,0,0,1,2.126-2.086l24.665,18.752a1.49,1.49,0,0,1,.48.628l0,0,5.739,14.175a1.5,1.5,0,0,1-.824,1.947l-.02.008-7.6,3.637a1.5,1.5,0,0,1-2.068-.907h0l-4.649-15.01Zm-6.842-12.731,9.317,11.034h0a1.474,1.474,0,0,1,.287.526l4.229,13.654,4.876-2.334-5.063-12.506Z" fill="#1a1818" fill-rule="evenodd"/>
        <path id="Path_245" data-name="Path 245" d="M2858.209,186.221l3.2,16.714,8.287,3.246-4.342-26.316-22.991-23.571-8.125-29.972-1.933,32.694Z" fill="#fff" fill-rule="evenodd"/>
        <path id="Path_246" data-name="Path 246" d="M2859.676,185.941l3.045,15.9,5.075,1.987-3.838-23.262-22.665-23.235a1.487,1.487,0,0,1-.372-.655h0l-5.73-21.14-1.356,22.917,25.457,26.735a1.485,1.485,0,0,1,.385.748Zm.266,17.275-3.118-16.284-25.58-26.864a1.49,1.49,0,0,1-.43-1.139l1.93-32.623a1.5,1.5,0,0,1,2.939-.37l8.022,29.6,22.7,23.267a1.484,1.484,0,0,1,.425.824l4.333,26.254a1.494,1.494,0,0,1-2.007,1.693l-8.263-3.236A1.491,1.491,0,0,1,2859.942,203.216Z" fill="#1a1818" fill-rule="evenodd"/>
        <path id="Path_247" data-name="Path 247" d="M2820.434,111.883l-9.614,13.693,10.212,30.207-.144-27.961,9.992-16.275-26.54-27.735Z" fill="#fff" fill-rule="evenodd"/>
        <path id="Path_248" data-name="Path 248" d="M2821.6,112.8l-9.135,13.012,7.03,20.795-.1-18.779a1.458,1.458,0,0,1,.28-.867l9.344-15.219L2811.65,93.586l10.076,17.574a1.461,1.461,0,0,1-.126,1.638Zm-12,11.938,9.08-12.932-15.633-27.268h0a1.458,1.458,0,0,1,.268-1.789,1.494,1.494,0,0,1,2.1.057l26.5,27.691a1.463,1.463,0,0,1,.236,1.819l-9.771,15.914.143,27.553h0a1.47,1.47,0,0,1-1.014,1.4,1.493,1.493,0,0,1-1.882-.931l-10.212-30.207h0A1.455,1.455,0,0,1,2809.6,124.736Z" fill="#1a1818" fill-rule="evenodd"/>
        <path id="Path_249" data-name="Path 249" d="M2817.514,66.963l-7.583-23.471.407,28.854,13.807,14.335,8.408,17.773L2831.4,82.63Z" fill="#fff" fill-rule="evenodd"/>
        <path id="Path_250" data-name="Path 250" d="M2816.1,67.408l-4.542-14.061.26,18.4,13.406,13.919a1.473,1.473,0,0,1,.314.491l5.138,10.859-.732-13.8L2816.4,67.933a1.478,1.478,0,0,1-.3-.525Zm-4.75-24.361,7.488,23.181,13.677,15.433h0a1.462,1.462,0,0,1,.369.9l1.154,21.758a1.465,1.465,0,0,1-.849,1.47,1.5,1.5,0,0,1-1.976-.714l-8.3-17.543-13.645-14.168,0,0a1.462,1.462,0,0,1-.412-1l-.407-28.77a1.468,1.468,0,0,1,1.03-1.5A1.5,1.5,0,0,1,2811.347,43.047Z" fill="#1a1818" fill-rule="evenodd"/>
        <path id="Path_251" data-name="Path 251" d="M2889.446,198.345l-11.662-1.98-25.034.48-11.589,2.909,10.365,69.566,29.371-.176Z" fill="#fff28b" fill-rule="evenodd"/>
        <path id="Path_252" data-name="Path 252" d="M2887.79,199.58l-10.131-1.72-24.695.473-10.125,2.542,9.975,66.947,26.756-.16,8.22-68.082Zm-9.76-4.688,11.6,1.97a1.494,1.494,0,0,1,1.3,1.659l-8.549,70.8h0a1.491,1.491,0,0,1-1.475,1.316l-29.257.176a1.5,1.5,0,0,1-1.6-1.274l-10.365-69.567h0a1.5,1.5,0,0,1,1.117-1.667l11.589-2.908v0a1.506,1.506,0,0,1,.338-.044l24.936-.478A1.475,1.475,0,0,1,2878.03,194.892Z" fill="#1a1818" fill-rule="evenodd"/>
        <path id="Path_253" data-name="Path 253" d="M2903.044,227.542l-14.944-18.27-1.038,8.552-11.315-8.422-8.64-1.9h-16.672l-3.542,3.8,1.814,5.01,18.487,1.209,13.216,9.848-14.858-4.233-11.316-.086-9.5,3.282-2.072,5.788,2.851,4.319,11.662-2.159,8.033.863,9.071,5.442-16.932-.258-10.8,2.765-.865,5.529,3.974,3.888,10.712-.865L2876,254.236l-14.385.468-9.8,2.9-1.122,3.542,2.591,3.2,11.238-1.19,11.222,2.053,13.822,12.439,17.8,7.948,21.683-25.484-13.908-12.095Z" fill="#fff" fill-rule="evenodd"/>
        <path id="Path_254" data-name="Path 254" d="M2901.82,228.408l-12.659-15.476-.615,5.067a1.5,1.5,0,0,1-2.458.96l-10.969-8.166-8.195-1.8-15.837,0-2.48,2.66,1.17,3.231,17.51,1.146a1.493,1.493,0,0,1,.856.338l13.156,9.8a1.492,1.492,0,0,1-1.3,2.633v0l-14.68-4.181-10.842-.082-8.578,2.961-1.582,4.419,1.893,2.868,10.692-1.979a1.5,1.5,0,0,1,.427-.016h0l8.032.862a1.5,1.5,0,0,1,.67.242l9.01,5.406a1.492,1.492,0,0,1-.847,2.77l-16.676-.255-9.651,2.471-.594,3.8,2.937,2.874,10.04-.81a1.477,1.477,0,0,1,.457.034l15.536,2.576a1.492,1.492,0,0,1-.245,2.965l-14.136.46L2853,258.81l-.641,2.025,1.572,1.938,10.437-1.105a1.508,1.508,0,0,1,.476.028l11.167,2.042a1.485,1.485,0,0,1,.729.359v0l13.655,12.287,16.555,7.4,20-23.508-12.794-11.125a1.466,1.466,0,0,1-.308-.369h0l-12.031-20.368Zm-12.564-20.083L2904.2,226.6h0a1.657,1.657,0,0,1,.13.186l11.974,20.27,13.718,11.929,0,0a1.491,1.491,0,0,1,.16,2.091l-21.621,25.41a1.494,1.494,0,0,1-1.8.471l-17.71-7.911a1.5,1.5,0,0,1-.477-.289l-13.512-12.16-10.588-1.936-11.03,1.168h0a1.491,1.491,0,0,1-1.31-.543l-2.525-3.114a1.5,1.5,0,0,1-.335-1.473l1.121-3.542h0a1.492,1.492,0,0,1,1-.983l9.755-2.888-.832-.137-10.544.851v0a1.489,1.489,0,0,1-1.162-.424l-3.974-3.888h0a1.487,1.487,0,0,1-.427-1.291l.863-5.519a1.491,1.491,0,0,1,1.106-1.225l10.747-2.752a1.491,1.491,0,0,1,.436-.059l11.389.174-4.03-2.418-7.5-.805-11.376,2.106a1.5,1.5,0,0,1-1.584-.631l-2.8-4.243a1.5,1.5,0,0,1-.214-1.4l2.073-5.789,0,0a1.49,1.49,0,0,1,.918-.908l9.454-3.264a1.5,1.5,0,0,1,.542-.1l11.2.085a1.466,1.466,0,0,1,.519.054l7.029,2-6.331-4.718-18.046-1.181h0a1.491,1.491,0,0,1-1.309-.981l-1.793-4.95a1.5,1.5,0,0,1,.288-1.585l3.542-3.8,0,0a1.488,1.488,0,0,1,1.091-.475l16.554,0a1.524,1.524,0,0,1,.434.029l8.639,1.9v0a1.476,1.476,0,0,1,.573.26l9.252,6.887.728-5.993a1.495,1.495,0,0,1,2.642-.771Z" fill="#1a1818" fill-rule="evenodd"/>
        <path id="Path_255" data-name="Path 255" d="M2931.8,258.039l18.064,15.461-.4,4.542L2926.1,308.313l-5.787.174-18.487-17.969,2.591-6.651,21.252-24.88Z" fill="#f197ab" fill-rule="evenodd"/>
        <path id="Path_256" data-name="Path 256" d="M2932.772,256.9l18.063,15.461a1.491,1.491,0,0,1,.517,1.262h0l-.4,4.542a1.486,1.486,0,0,1-.377.87l-23.3,30.184a1.49,1.49,0,0,1-1.178.58l-5.749.173a1.49,1.49,0,0,1-1.081-.422h0l-18.488-17.969a1.5,1.5,0,0,1-.331-1.658l2.572-6.6a1.5,1.5,0,0,1,.257-.432h0l21.253-24.879a1.485,1.485,0,0,1,.982-.515l6.056-.936a1.487,1.487,0,0,1,1.2.341l0,0Zm15.535,17.227-16.957-14.514-4.9.757-20.733,24.271-2.139,5.491,17.326,16.84,4.448-.133,22.664-29.362Z" fill="#1a1818" fill-rule="evenodd"/>
        <path id="Path_257" data-name="Path 257" d="M2764.63,345.548l29.89,71.354,4.148,2.074,7.082-.518,95.542-34.9-1.382-4.146L2782.426,341.4Z" fill="#f197ab" fill-rule="evenodd"/>
        <path id="Path_258" data-name="Path 258" d="M2766.692,346.6l28.994,69.216,3.274,1.637,6.48-.474,93.979-34.328-.684-2.054L2782.366,342.95l-15.674,3.652Zm26.448,70.872-29.867-71.3a1.442,1.442,0,0,1-.1-.289,1.493,1.493,0,0,1,1.116-1.794l17.8-4.146v0a1.485,1.485,0,0,1,.794.033l117.484,38.009v0a1.489,1.489,0,0,1,.96.951l1.353,4.065.016.041a1.494,1.494,0,0,1-.9,1.912l-95.457,34.868a1.493,1.493,0,0,1-.488.118l-7.082.519v0a1.474,1.474,0,0,1-.771-.154l-4.058-2.029A1.488,1.488,0,0,1,2793.14,417.474Z" fill="#1a1818" fill-rule="evenodd"/>
        <path id="Path_259" data-name="Path 259" d="M2769.218,346.323l.691-22.114,10.452,8.378,4.32,7.775-1.209,5.961-4.923,6.911Z" fill="#fff" fill-rule="evenodd"/>
        <path id="Path_260" data-name="Path 260" d="M2767.728,346.234l.689-22.066a1.491,1.491,0,0,1,2.425-1.121v0l10.452,8.379a1.49,1.49,0,0,1,.4.495l4.288,7.717a1.484,1.484,0,0,1,.146,1.076l-1.2,5.9a1.466,1.466,0,0,1-.247.572l0,0-4.923,6.911a1.494,1.494,0,0,1-2.082.35l-.051-.038-9.3-6.89a1.488,1.488,0,0,1-.6-1.288Zm3.578-18.992-.574,18.347,7.482,5.541,3.86-5.418,1.036-5.106-3.91-7.035Z" fill="#1a1818" fill-rule="evenodd"/>
        <path id="Path_261" data-name="Path 261" d="M2780.868,377.681l13.993,30.408,54.424-17.45-67.9-23.842Z" fill="#fff28b" fill-rule="evenodd"/>
        <path id="Path_262" data-name="Path 262" d="M2782.377,377.385l13.289,28.879,48.932-15.69-61.816-21.705-.405,8.516Zm11.128,31.33-13.993-30.409h0a1.488,1.488,0,0,1-.136-.7l.519-10.883h0a1.491,1.491,0,0,1,1.981-1.339l67.888,23.837a1.492,1.492,0,0,1-.025,2.833l-54.36,17.43A1.5,1.5,0,0,1,2793.5,408.715Z" fill="#1a1818" fill-rule="evenodd"/>
        <path id="Path_263" data-name="Path 263" d="M2755.825,289.228,2636.1,255.884l-3.111,3.109,39.047,107.635,5.01,5.874,118.175,45.957,3.8-3.8L2763.081,296.83Z" fill="#f197ab" fill-rule="evenodd"/>
        <path id="Path_264" data-name="Path 264" d="M2755.028,290.555l-118.493-33-1.824,1.822,38.631,106.488,4.592,5.383,116.911,45.466,2.483-2.482L2761.76,297.608l-6.732-7.053Zm-118.535-36.109,119.692,33.333a1.48,1.48,0,0,1,.721.42l7.256,7.6h0a1.476,1.476,0,0,1,.346.6l35.9,117.7a1.5,1.5,0,0,1-.327,1.625l-3.8,3.8,0,0a1.49,1.49,0,0,1-1.592.336l-118.127-45.938a1.49,1.49,0,0,1-.645-.44l-5-5.858a1.476,1.476,0,0,1-.282-.477l-39.04-107.614a1.493,1.493,0,0,1,.343-1.587l3.1-3.1A1.491,1.491,0,0,1,2636.493,254.446Z" fill="#1a1818" fill-rule="evenodd"/>
        <path id="Path_265" data-name="Path 265" d="M2949.272,275.03a1.5,1.5,0,0,1,1.263-2.713l41.481,19.316,39.607,11.71a1.484,1.484,0,0,1,.765.526h0l17.1,22.288a1.493,1.493,0,1,1-2.373,1.812l-16.807-21.9-39.174-11.582a1.467,1.467,0,0,1-.3-.1Z" fill="#1a1818" fill-rule="evenodd"/>
        <path id="Path_266" data-name="Path 266" d="M2919.559,309.752a1.489,1.489,0,1,1,1.93-2.268l62.238,52.967,51.542,15.98a1.492,1.492,0,1,1-.877,2.853l-51.83-16.07v0a1.48,1.48,0,0,1-.527-.289Z" fill="#1a1818" fill-rule="evenodd"/>
        <path id="Path_267" data-name="Path 267" d="M2983.406,236.034a1.491,1.491,0,1,1,2.982-.035l.514,36.75,6.249,19.57a1.49,1.49,0,1,1-2.841.9l-6.3-19.727a1.473,1.473,0,0,1-.087-.485Z" fill="#1a1818" fill-rule="evenodd"/>
        <path id="Path_268" data-name="Path 268" d="M2823.406,46.488l4.678,22.05,3.268-22.835,6.238-18.622Z" fill="#fff" fill-rule="evenodd"/>
        <path id="Path_269" data-name="Path 269" d="M2825.006,46.83l2.792,13.159,2.074-14.5a1.476,1.476,0,0,1,.092-.343l3.156-9.42-8.114,11.1Zm1.616,22.018-4.678-22.05h0a1.493,1.493,0,0,1,.256-1.193L2836.386,26.2h0A1.493,1.493,0,0,1,2839,27.555l-6.191,18.483-3.249,22.7a1.494,1.494,0,0,1-2.943.109Z" fill="#1a1818" fill-rule="evenodd"/>
        <path id="Path_270" data-name="Path 270" d="M2885.514,218.476a1.5,1.5,0,1,1,2.117-2.116l3.282,3.283a1.5,1.5,0,1,1-2.116,2.116Z" fill="#1a1818" fill-rule="evenodd"/>
      </g>
    </g>
  </g>
</svg>
