<svg xmlns="http://www.w3.org/2000/svg"  viewBox="0 0 100 100" width="100px" height="100px"><circle cx="50" cy="50" r="35" fill="#8e9cb3"/><path fill="#a2b4cc" d="M50,35.5c-8,0-14.5,6.5-14.5,14.5S42,64.5,50,64.5S64.5,58,64.5,50S58,35.5,50,35.5z M50,60.6	c-5.9,0-10.6-4.8-10.6-10.6S44.1,39.4,50,39.4S60.6,44.1,60.6,50S55.9,60.6,50,60.6z"/><path fill="#d3dff1" d="M50,23.5c-14.6,0-26.5,11.9-26.5,26.5S35.4,76.5,50,76.5S76.5,64.6,76.5,50S64.6,23.5,50,23.5z M44.2,29.8	C46,29.3,48,29,50,29c9.8,0,18.2,6.8,20.4,16c0.3,1.3-0.6,2.5-1.9,2.5H52.6c-0.7,0-1.4-0.4-1.7-1l-3.5-6.1l-0.3-0.5l-2-3.5L44.8,36	L43,32.8C42.3,31.6,42.9,30.2,44.2,29.8z M40.5,61.5l-1.8,3.2c-0.7,1.1-2.2,1.3-3.1,0.4C31.5,61.3,29,56,29,50s2.5-11.3,6.5-15.2	c0.9-0.9,2.5-0.7,3.1,0.5l1.8,3.2l0.3,0.4l2,3.5l0.3,0.4l3.5,6.1c0.4,0.6,0.4,1.4,0,2L43,57.1l-0.3,0.5l-2,3.5L40.5,61.5z M70.4,55	C68.2,64.2,59.8,71,50,71c-2,0-4-0.3-5.8-0.8c-1.3-0.4-1.9-1.8-1.2-2.9l1.8-3.2l0.3-0.4l2-3.5l0.3-0.5l3.5-6.1c0.4-0.6,1-1,1.7-1	h15.9C69.8,52.5,70.7,53.7,70.4,55z"/><path fill="#1f212b" d="M50,14c-19.9,0-36,16.1-36,36s16.1,36,36,36s36-16.1,36-36S69.9,14,50,14z M50,84c-18.7,0-34-15.3-34-34	c0-18.7,15.3-34,34-34c18.7,0,34,15.3,34,34C84,68.7,68.7,84,50,84z"/><path fill="#1f212b" d="M46.9,48.7l-3.5-6.2l-0.3-0.3l-2-3.6l-0.3-0.3L39,35.1c-0.4-0.7-1-1.2-1.8-1.3c-0.8-0.1-1.6,0.1-2.1,0.7	c-4.3,4.2-6.7,9.7-6.7,15.6c0,5.9,2.4,11.4,6.7,15.5c0.5,0.5,1.1,0.7,1.7,0.7c0.1,0,0.2,0,0.3,0c0.8-0.1,1.5-0.5,1.9-1.2l1.8-3.2	c0,0,0,0,0,0l6-10.5C47.4,50.4,47.4,49.4,46.9,48.7z M40.6,60.3c-2.5-2.3-4.1-5.4-4.5-8.8c0,0,0-0.1,0-0.1c0,0,0,0,0-0.1	c0-0.5-0.1-0.9-0.1-1.4c0-0.5,0-0.9,0.1-1.4c0,0,0,0,0-0.1c0,0,0-0.1,0-0.1c0.4-3.4,2-6.5,4.5-8.8l1.5,2.6c-2,2-3.1,4.7-3.1,7.7	c0,2.9,1.1,5.7,3.1,7.7L40.6,60.3z M38.3,64.4c-0.3,0.4-0.7,0.7-1.1,0.7c-0.4,0-0.9-0.1-1.2-0.4c-4.2-3.8-6.4-9.1-6.4-14.7	c0-5.6,2.3-10.9,6.4-14.8c0.3-0.3,0.6-0.4,1-0.4c0.1,0,0.2,0,0.2,0c0.5,0.1,0.8,0.4,1.1,0.8l1.8,3.3l0,0c-0.3,0.3-0.6,0.5-0.9,0.8	l-1.1-1c-0.2-0.2-0.5-0.2-0.7,0.1c-0.2,0.2-0.2,0.5,0.1,0.7l1.1,1c-0.5,0.6-0.9,1.1-1.3,1.7L36,41.4c-0.2-0.1-0.5-0.1-0.7,0.2	c-0.1,0.2-0.1,0.5,0.2,0.7l1.3,0.8c-0.3,0.6-0.6,1.2-0.8,1.9l-1.5-0.5c-0.3-0.1-0.5,0.1-0.6,0.3c-0.1,0.3,0.1,0.5,0.3,0.6l1.5,0.5	c-0.2,0.7-0.4,1.4-0.5,2.1l-1.5-0.2c-0.3,0-0.5,0.2-0.5,0.4c0,0.3,0.2,0.5,0.4,0.5l1.5,0.2c0,0.3-0.1,0.7-0.1,1.1	c0,0.4,0,0.7,0.1,1.1l-1.5,0.2c-0.3,0-0.5,0.3-0.4,0.5c0,0.3,0.2,0.5,0.5,0.5c0,0,0,0,0.1,0l1.5-0.2c0.1,0.7,0.3,1.4,0.5,2.1	l-1.5,0.5c-0.3,0.1-0.4,0.4-0.3,0.6c0.1,0.2,0.3,0.3,0.5,0.3c0,0,0.1,0,0.2,0l1.5-0.5c0.2,0.7,0.5,1.3,0.9,2l-1.4,0.8	c-0.2,0.1-0.3,0.4-0.2,0.7c0.1,0.2,0.3,0.2,0.4,0.2c0.1,0,0.2,0,0.3-0.1l1.4-0.8c0.4,0.6,0.8,1.1,1.2,1.7l-1.2,1	c-0.2,0.2-0.2,0.5-0.1,0.7c0.1,0.1,0.2,0.2,0.4,0.2c0.1,0,0.2,0,0.3-0.1l1.2-1c0.3,0.3,0.6,0.6,0.9,0.8L38.3,64.4z M46.1,50.7	l-3.5,6.1C40.9,55,40,52.6,40,50c0-2.6,0.9-5,2.6-6.8l3.4,6C46.4,49.6,46.4,50.2,46.1,50.7z"/><path fill="#1f212b" d="M68.5,52.1H52.6c-0.8,0-1.6,0.4-2.1,1.3l-5.8,10L42.6,67c-0.4,0.6-0.5,1.4-0.2,2.1c0.3,0.8,0.9,1.3,1.7,1.6	c1.9,0.5,4,0.8,5.9,0.8c9.8,0,18.6-6.9,20.9-16.4c0,0,0,0,0,0c0.2-0.8,0-1.6-0.5-2.2C69.9,52.3,69.2,52,68.5,52.1z M58.4,61.2	c-0.1,0-0.1,0-0.2,0.1c-0.1,0-0.1,0.1-0.1,0.2c-0.7,0.5-1.4,0.9-2.2,1.2c-0.1,0-0.1,0-0.2,0c-0.1,0-0.1,0.1-0.2,0.1	C53.8,63.6,52,64,50,64c-1.5,0-2.8-0.2-4.1-0.6l1.5-2.7c0.8,0.2,1.7,0.3,2.6,0.3c4.9,0,9.2-3.3,10.5-7.9l3.1,0	C62.9,56.4,61,59.3,58.4,61.2z M51.3,53.9c0.2-0.3,0.6-0.8,1.3-0.8l6.9,0c-1.3,4-5.2,6.9-9.5,6.9c-0.7,0-1.4-0.1-2.1-0.2L51.3,53.9z M69.9,54.9c-2.2,9-10.5,15.6-19.9,15.6c-1.9,0-3.8-0.3-5.7-0.8c-0.5-0.2-0.9-0.5-1.1-1c-0.1-0.4-0.1-0.8,0.1-1.2l1.8-3.1l0.1-0.2	c0.4,0.1,0.7,0.2,1.1,0.3L46.1,66c-0.1,0.3,0.1,0.5,0.4,0.6c0,0,0.1,0,0.1,0c0.2,0,0.4-0.2,0.5-0.4l0.3-1.4c0.7,0.1,1.4,0.2,2.1,0.2	v1.5c0,0.3,0.2,0.5,0.5,0.5s0.5-0.2,0.5-0.5V65c0.7,0,1.4-0.1,2.1-0.2l0.3,1.4c0,0.2,0.3,0.4,0.5,0.4c0,0,0.1,0,0.1,0	c0.3-0.1,0.4-0.3,0.4-0.6l-0.3-1.4c0.7-0.2,1.4-0.4,2.1-0.7l0.6,1.4c0.1,0.2,0.3,0.3,0.5,0.3c0.1,0,0.1,0,0.2,0	c0.3-0.1,0.4-0.4,0.3-0.7l-0.6-1.4c0.6-0.3,1.3-0.7,1.8-1.1l0.9,1.2c0.1,0.1,0.2,0.2,0.4,0.2c0.1,0,0.2,0,0.3-0.1	c0.2-0.2,0.3-0.5,0.1-0.7l-0.9-1.2c0.6-0.4,1.1-0.9,1.6-1.4l1.1,1c0.1,0.1,0.2,0.1,0.3,0.1c0.1,0,0.3-0.1,0.4-0.2	c0.2-0.2,0.2-0.5-0.1-0.7l-1.1-1c0.4-0.5,0.8-1.1,1.2-1.7l1.3,0.8c0.1,0,0.2,0.1,0.3,0.1c0.2,0,0.3-0.1,0.4-0.2	c0.1-0.2,0.1-0.5-0.2-0.7l-1.3-0.8c0.3-0.6,0.6-1.3,0.9-2l1.4,0.5c0,0,0.1,0,0.2,0c0.2,0,0.4-0.1,0.5-0.3c0.1-0.3-0.1-0.5-0.3-0.6	l-1.4-0.5c0.1-0.4,0.2-0.7,0.3-1.1l3.9,0c0,0,0.1,0,0.1,0c0.4,0,0.7,0.2,1,0.4C69.9,53.9,70,54.4,69.9,54.9z"/><path fill="#1f212b" d="M50,28.5c-2,0-4,0.3-5.9,0.8c0,0,0,0,0,0c-0.8,0.2-1.4,0.8-1.7,1.5c-0.3,0.7-0.2,1.5,0.2,2.2l1.8,3.3l0.1,0.1	c0,0,0,0.1,0,0.1c0,0.1,0.1,0.2,0.2,0.3l5.7,9.9c0.4,0.8,1.2,1.3,2.1,1.3h15.9c0.8,0,1.5-0.3,1.9-0.9c0.5-0.6,0.7-1.4,0.5-2.2	C68.6,35.4,59.8,28.5,50,28.5z M50,36c2,0,3.8,0.4,5.5,1.2c0,0,0.1,0.1,0.2,0.1c0.1,0,0.1,0,0.2,0c0.8,0.4,1.5,0.8,2.2,1.2	c0,0.1,0.1,0.1,0.1,0.2c0,0,0.1,0,0.1,0c2.7,2,4.6,4.9,5.4,8.3h-3.1c-1.3-4.7-5.7-8-10.6-8c-1,0-1.9,0.1-2.7,0.3l-1.5-2.7	C47.1,36.2,48.5,36,50,36z M51.3,46.3l-3.5-6c0.6-0.1,1.3-0.2,2.1-0.2c4.4,0,8.3,2.9,9.5,7h-6.9C52.1,47,51.6,46.7,51.3,46.3z M69.6,46.5C69.4,46.8,69,47,68.5,47h-3.8c-0.1-0.4-0.2-0.8-0.3-1.2l1.4-0.5c0.3-0.1,0.4-0.4,0.3-0.6s-0.4-0.4-0.6-0.3l-1.4,0.5	c-0.2-0.7-0.5-1.3-0.8-1.9l1.3-0.8c0.2-0.1,0.3-0.4,0.2-0.7c-0.1-0.2-0.4-0.3-0.7-0.2l-1.3,0.8c-0.4-0.6-0.8-1.2-1.3-1.8l1.1-1	c0.2-0.2,0.2-0.5,0.1-0.7c-0.2-0.2-0.5-0.2-0.7-0.1l-1.1,1c-0.5-0.5-1-1-1.6-1.4l0.9-1.2c0.2-0.2,0.1-0.5-0.1-0.7	c-0.2-0.2-0.5-0.1-0.7,0.1l-0.9,1.2c-0.6-0.4-1.2-0.8-1.8-1.1l0.6-1.4c0.1-0.3,0-0.5-0.3-0.7c-0.3-0.1-0.5,0-0.7,0.3l-0.6,1.4	c-0.7-0.3-1.4-0.5-2.1-0.7l0.3-1.4c0.1-0.3-0.1-0.5-0.4-0.6c-0.3-0.1-0.5,0.1-0.6,0.4l-0.3,1.4c-0.7-0.1-1.4-0.2-2.1-0.2v-1.5	c0-0.3-0.2-0.5-0.5-0.5s-0.5,0.2-0.5,0.5V35c-0.7,0-1.4,0.1-2.1,0.2l-0.3-1.4c-0.1-0.3-0.3-0.4-0.6-0.4c-0.3,0.1-0.4,0.3-0.4,0.6	l0.3,1.4c-0.4,0.1-0.8,0.2-1.2,0.3l0,0l-1.8-3.2c-0.3-0.4-0.3-0.9-0.1-1.3c0.2-0.4,0.5-0.8,1-0.9c1.8-0.5,3.8-0.8,5.7-0.8	c9.4,0,17.8,6.6,19.9,15.6C70,45.6,69.9,46.1,69.6,46.5z"/><path fill="#1f212b" d="M65.5,27.9c-0.7-0.5-1.3-0.9-2-1.3l0.7-1.4c0.1-0.2,0-0.5-0.2-0.7c-0.2-0.1-0.5,0-0.7,0.2l-0.7,1.3	c-0.7-0.4-1.4-0.7-2.1-1l0.5-1.4c0.1-0.3,0-0.5-0.3-0.6c-0.3-0.1-0.5,0-0.6,0.3l-0.5,1.4c-0.8-0.3-1.5-0.5-2.3-0.8l0.4-1.5	c0.1-0.3-0.1-0.5-0.4-0.6c-0.3-0.1-0.5,0.1-0.6,0.4l-0.4,1.5c-0.8-0.2-1.6-0.3-2.4-0.5l0.2-1.5c0-0.3-0.1-0.5-0.4-0.6	c-0.3,0-0.5,0.1-0.6,0.4l-0.2,1.5c-0.8-0.1-1.6-0.1-2.4-0.1v-1.5c0-0.3-0.2-0.5-0.5-0.5s-0.5,0.2-0.5,0.5V23c-0.8,0-1.6,0.1-2.4,0.1	l-0.2-1.5c0-0.3-0.3-0.5-0.6-0.4c-0.3,0-0.5,0.3-0.4,0.6l0.2,1.5c-0.8,0.1-1.6,0.3-2.4,0.5l-0.4-1.5c-0.1-0.3-0.3-0.4-0.6-0.4	s-0.4,0.3-0.4,0.6l0.4,1.5c-0.8,0.2-1.6,0.5-2.3,0.8L40,23.3c-0.1-0.3-0.4-0.4-0.6-0.3c-0.3,0.1-0.4,0.4-0.3,0.6l0.5,1.4	c-0.7,0.3-1.4,0.6-2.1,1l-0.7-1.3c-0.1-0.2-0.4-0.3-0.7-0.2c-0.2,0.1-0.3,0.4-0.2,0.7l0.7,1.4c-0.7,0.4-1.4,0.8-2,1.3l-0.9-1.3	c-0.2-0.2-0.5-0.3-0.7-0.1c-0.2,0.2-0.3,0.5-0.1,0.7l0.9,1.3c-0.6,0.5-1.2,1-1.8,1.5l-1-1.1c-0.2-0.2-0.5-0.2-0.7,0	c-0.2,0.2-0.2,0.5,0,0.7l1,1.1c-0.6,0.6-1.1,1.1-1.6,1.7l-1.2-1c-0.2-0.2-0.5-0.1-0.7,0.1c-0.2,0.2-0.1,0.5,0.1,0.7l1.2,1	c-0.5,0.6-1,1.3-1.4,1.9l-1.3-0.8c-0.2-0.1-0.5-0.1-0.7,0.1s-0.1,0.5,0.1,0.7l1.3,0.8c-0.4,0.7-0.8,1.4-1.1,2.1l-1.4-0.6	c-0.3-0.1-0.5,0-0.7,0.3c-0.1,0.3,0,0.5,0.3,0.7l1.4,0.6c-0.3,0.7-0.6,1.5-0.9,2.2l-1.4-0.5c-0.3-0.1-0.5,0.1-0.6,0.3	c-0.1,0.3,0.1,0.5,0.3,0.6l1.4,0.4c-0.2,0.8-0.4,1.5-0.6,2.3l-1.5-0.2c-0.3,0-0.5,0.1-0.6,0.4s0.1,0.5,0.4,0.6l1.5,0.2	c-0.1,0.8-0.2,1.6-0.3,2.4l-1.5-0.1c-0.3,0-0.5,0.2-0.5,0.5c0,0.3,0.2,0.5,0.5,0.5l1.5,0.1c0,0.4,0,0.8,0,1.2c0,0.4,0,0.8,0,1.2	l-1.5,0.1c-0.3,0-0.5,0.2-0.5,0.5c0,0.3,0.2,0.5,0.5,0.5c0,0,0,0,0,0l1.5-0.1c0.1,0.8,0.2,1.6,0.3,2.4l-1.5,0.2	c-0.3,0-0.5,0.3-0.4,0.6c0,0.2,0.3,0.4,0.5,0.4c0,0,0,0,0.1,0l1.5-0.2c0.2,0.8,0.4,1.6,0.6,2.3l-1.4,0.4c-0.3,0.1-0.4,0.4-0.3,0.6	c0.1,0.2,0.3,0.3,0.5,0.3c0,0,0.1,0,0.2,0l1.4-0.5c0.3,0.8,0.6,1.5,0.9,2.2L24,61.6c-0.3,0.1-0.4,0.4-0.3,0.7	c0.1,0.2,0.3,0.3,0.5,0.3c0.1,0,0.1,0,0.2,0l1.4-0.6c0.4,0.7,0.7,1.4,1.1,2.1l-1.3,0.8c-0.2,0.2-0.3,0.5-0.1,0.7	c0.1,0.1,0.3,0.2,0.4,0.2c0.1,0,0.2,0,0.3-0.1l1.3-0.8c0.4,0.7,0.9,1.3,1.4,1.9l-1.2,1c-0.2,0.2-0.2,0.5-0.1,0.7	c0.1,0.1,0.2,0.2,0.4,0.2c0.1,0,0.2,0,0.3-0.1l1.2-1c0.5,0.6,1.1,1.2,1.6,1.7l-1,1.1c-0.2,0.2-0.2,0.5,0,0.7	c0.1,0.1,0.2,0.1,0.3,0.1c0.1,0,0.3-0.1,0.4-0.2l1-1.1c0.6,0.5,1.2,1,1.8,1.5l-0.9,1.3c-0.2,0.2-0.1,0.5,0.1,0.7	c0.1,0.1,0.2,0.1,0.3,0.1c0.2,0,0.3-0.1,0.4-0.2l0.9-1.3c0.7,0.5,1.3,0.9,2,1.3l-0.7,1.4c-0.1,0.2,0,0.5,0.2,0.7	c0.1,0,0.1,0.1,0.2,0.1c0.2,0,0.4-0.1,0.4-0.3l0.7-1.3c0.7,0.4,1.4,0.7,2.1,1L39,76.3c-0.1,0.3,0,0.5,0.3,0.6c0.1,0,0.1,0,0.2,0	c0.2,0,0.4-0.1,0.5-0.3l0.5-1.4c0.8,0.3,1.5,0.5,2.3,0.8l-0.4,1.5c-0.1,0.3,0.1,0.5,0.4,0.6c0,0,0.1,0,0.1,0c0.2,0,0.4-0.1,0.5-0.4	l0.4-1.5c0.8,0.2,1.6,0.3,2.4,0.5l-0.2,1.5c0,0.3,0.1,0.5,0.4,0.6c0,0,0.1,0,0.1,0c0.2,0,0.5-0.2,0.5-0.4l0.2-1.5	c0.8,0.1,1.6,0.1,2.4,0.1v1.5c0,0.3,0.2,0.5,0.5,0.5s0.5-0.2,0.5-0.5V77c0.8,0,1.6-0.1,2.4-0.1l0.2,1.5c0,0.2,0.3,0.4,0.5,0.4	c0,0,0,0,0.1,0c0.3,0,0.5-0.3,0.4-0.6l-0.2-1.5c0.8-0.1,1.6-0.3,2.4-0.5l0.4,1.5c0.1,0.2,0.3,0.4,0.5,0.4c0,0,0.1,0,0.1,0	c0.3-0.1,0.4-0.3,0.4-0.6L57.2,76c0.8-0.2,1.6-0.5,2.3-0.8l0.5,1.4c0.1,0.2,0.3,0.3,0.5,0.3c0.1,0,0.1,0,0.2,0	c0.3-0.1,0.4-0.4,0.3-0.6l-0.5-1.4c0.7-0.3,1.4-0.6,2.1-1l0.7,1.3c0.1,0.2,0.3,0.3,0.4,0.3c0.1,0,0.2,0,0.2-0.1	c0.2-0.1,0.3-0.4,0.2-0.7l-0.7-1.4c0.7-0.4,1.4-0.8,2-1.3l0.9,1.3c0.1,0.1,0.3,0.2,0.4,0.2c0.1,0,0.2,0,0.3-0.1	c0.2-0.2,0.3-0.5,0.1-0.7l-0.9-1.3c0.6-0.5,1.2-1,1.8-1.5l1,1.1c0.1,0.1,0.2,0.2,0.4,0.2c0.1,0,0.2,0,0.3-0.1c0.2-0.2,0.2-0.5,0-0.7	l-1-1.1c0.6-0.6,1.1-1.1,1.6-1.7l1.2,1c0.1,0.1,0.2,0.1,0.3,0.1c0.1,0,0.3-0.1,0.4-0.2c0.2-0.2,0.1-0.5-0.1-0.7l-1.2-1	c0.5-0.6,1-1.3,1.4-1.9l1.3,0.8c0.1,0.1,0.2,0.1,0.3,0.1c0.2,0,0.3-0.1,0.4-0.2c0.1-0.2,0.1-0.5-0.1-0.7L73.1,64	c0.4-0.7,0.8-1.4,1.1-2.1l1.4,0.6c0.1,0,0.1,0,0.2,0c0.2,0,0.4-0.1,0.5-0.3c0.1-0.3,0-0.5-0.3-0.7L74.6,61c0.3-0.7,0.6-1.5,0.9-2.2	l1.4,0.5c0,0,0.1,0,0.2,0c0.2,0,0.4-0.1,0.5-0.3c0.1-0.3-0.1-0.5-0.3-0.6l-1.4-0.4c0.2-0.8,0.4-1.5,0.6-2.3l1.5,0.2c0,0,0,0,0.1,0	c0.2,0,0.5-0.2,0.5-0.4c0-0.3-0.1-0.5-0.4-0.6l-1.5-0.2c0.1-0.8,0.2-1.6,0.3-2.4l1.5,0.1c0,0,0,0,0,0c0.3,0,0.5-0.2,0.5-0.5	c0-0.3-0.2-0.5-0.5-0.5L77,51.2c0-0.4,0-0.8,0-1.2c0-0.4,0-0.8,0-1.2l1.5-0.1c0.3,0,0.5-0.2,0.5-0.5c0-0.3-0.2-0.5-0.5-0.5l-1.5,0.1	c-0.1-0.8-0.2-1.6-0.3-2.4l1.5-0.2c0.3,0,0.5-0.3,0.4-0.6c0-0.3-0.3-0.5-0.6-0.4l-1.5,0.2c-0.2-0.8-0.4-1.5-0.6-2.3l1.4-0.4	c0.3-0.1,0.4-0.4,0.3-0.6s-0.4-0.4-0.6-0.3l-1.4,0.5c-0.3-0.8-0.6-1.5-0.9-2.2l1.4-0.6c0.3-0.1,0.4-0.4,0.3-0.7	c-0.1-0.3-0.4-0.4-0.7-0.3l-1.4,0.6c-0.4-0.7-0.7-1.4-1.1-2.1l1.3-0.8c0.2-0.2,0.3-0.5,0.1-0.7c-0.2-0.2-0.5-0.3-0.7-0.1l-1.3,0.8	c-0.4-0.7-0.9-1.3-1.4-1.9l1.2-1c0.2-0.2,0.2-0.5,0.1-0.7c-0.2-0.2-0.5-0.2-0.7-0.1l-1.2,1c-0.5-0.6-1.1-1.2-1.6-1.7l1-1.1	c0.2-0.2,0.2-0.5,0-0.7c-0.2-0.2-0.5-0.2-0.7,0l-1,1.1c-0.6-0.5-1.2-1-1.8-1.5l0.9-1.3c0.2-0.2,0.1-0.5-0.1-0.7	c-0.2-0.2-0.5-0.1-0.7,0.1L65.5,27.9z M75.5,45C75.5,45,75.5,45,75.5,45c0,0.1,0,0.2,0,0.2c0.2,1,0.3,2,0.4,3c0,0.1,0,0.1,0,0.2	c0,0.1,0,0.1,0.1,0.2c0,0.5,0,1,0,1.5c0,0.5,0,1,0,1.5c0,0.1-0.1,0.1-0.1,0.2c0,0.1,0,0.1,0,0.2c-0.1,1-0.2,2-0.4,3c0,0,0,0.1,0,0.1	c0,0,0,0.1,0,0.1c-1.1,5.4-3.8,10.2-7.7,13.9c0,0-0.1,0-0.1,0.1c0,0,0,0.1-0.1,0.1c-0.7,0.7-1.5,1.4-2.4,2c0,0,0,0,0,0c0,0,0,0,0,0	c-1.7,1.3-3.6,2.3-5.6,3.1c0,0,0,0-0.1,0c0,0,0,0-0.1,0c-3,1.2-6.2,1.8-9.6,1.8c-3.4,0-6.6-0.7-9.6-1.8c0,0,0,0-0.1,0c0,0,0,0-0.1,0	c-2-0.8-3.9-1.9-5.6-3.1c0,0,0,0,0,0c0,0,0,0,0,0c-0.8-0.6-1.6-1.3-2.4-2c0,0,0-0.1-0.1-0.1c0,0-0.1,0-0.1-0.1	c-3.9-3.6-6.6-8.5-7.7-13.9c0,0,0-0.1,0-0.1c0,0,0-0.1,0-0.1c-0.2-1-0.3-2-0.4-3c0-0.1,0-0.1,0-0.2c0-0.1,0-0.1-0.1-0.2	c0-0.5,0-1,0-1.5c0-0.5,0-1,0-1.5c0-0.1,0.1-0.1,0.1-0.2c0-0.1,0-0.1,0-0.2c0.1-1,0.2-2,0.4-2.9c0,0,0-0.1,0-0.1c0,0,0-0.1,0-0.1	c1.1-5.4,3.8-10.2,7.7-13.9c0,0,0.1,0,0.1-0.1c0,0,0-0.1,0.1-0.1c0.8-0.7,1.5-1.4,2.4-2c0,0,0,0,0,0c0,0,0,0,0,0	c1.7-1.3,3.6-2.3,5.6-3.1c0,0,0,0,0.1,0c0,0,0,0,0.1,0c3-1.2,6.2-1.8,9.6-1.8s6.6,0.7,9.6,1.8c0,0,0,0,0.1,0c0,0,0,0,0.1,0	c2,0.8,3.9,1.9,5.6,3.1c0,0,0,0,0,0c0,0,0,0,0,0c0.8,0.6,1.6,1.3,2.4,2c0,0,0,0.1,0.1,0.1c0,0,0.1,0,0.1,0.1	C71.7,34.8,74.4,39.6,75.5,45z"/><path fill="#1f212b" d="M63.5,22c0.8,0.4,1.6,0.8,2.4,1.3c0.1,0.1,0.2,0.1,0.3,0.1c0.2,0,0.3-0.1,0.4-0.2c0.1-0.2,0.1-0.5-0.2-0.7	c-0.8-0.5-1.6-0.9-2.4-1.3c-0.2-0.1-0.5,0-0.7,0.2C63.1,21.6,63.2,21.9,63.5,22z"/><path fill="#1f212b" d="M70.8,27c0.1,0.1,0.2,0.1,0.3,0.1c0.1,0,0.3-0.1,0.4-0.2c0.2-0.2,0.2-0.5,0-0.7c-0.8-0.7-1.6-1.4-2.6-2	c-0.2-0.2-0.5-0.1-0.7,0.1s-0.1,0.5,0.1,0.7C69.2,25.6,70,26.3,70.8,27z"/><path fill="#1f212b" d="M74.3,29.2c-0.2-0.2-0.5-0.2-0.7-0.1c-0.2,0.2-0.2,0.5-0.1,0.7C78.4,35.6,81,42.5,81,50c0,17.1-13.9,31-31,31	c-17.1,0-31-13.9-31-31c0-17.1,13.9-31,31-31c3.9,0,7.5,0.6,10.7,1.9c0.3,0.1,0.5,0,0.6-0.3s0-0.5-0.3-0.6C57.7,18.7,54,18,50,18	c-17.6,0-32,14.4-32,32c0,17.6,14.4,32,32,32c17.6,0,32-14.4,32-32C82,42.3,79.3,35.1,74.3,29.2z"/><circle cx="50" cy="50" r="1" fill="#1f212b"/></svg>